<svg xmlns="http://www.w3.org/2000/svg" width="99.273" height="99.273" viewBox="0 0 99.273 99.273">
  <defs>
    <style>
      .cls-1 {
        fill: #fff;
      }
    </style>
  </defs>
  <g id="bank" transform="translate(-1 -1)">
    <path id="Path_1718" data-name="Path 1718" class="cls-1" d="M98.672,36.226a1.6,1.6,0,0,0,1.6-1.6V9.006a1.6,1.6,0,0,0-1.6-1.6h-1.6V2.6A1.6,1.6,0,0,0,95.47,1H5.8A1.6,1.6,0,0,0,4.2,2.6V7.4H2.6A1.6,1.6,0,0,0,1,9.006V34.625a1.6,1.6,0,0,0,1.6,1.6H4.2v54.44H2.6a1.6,1.6,0,0,0-1.6,1.6v6.4a1.6,1.6,0,0,0,1.6,1.6H98.672a1.6,1.6,0,0,0,1.6-1.6v-6.4a1.6,1.6,0,0,0-1.6-1.6h-1.6V36.226ZM7.4,4.2H93.869V7.4H7.4Zm-3.2,6.4H97.071V33.024H4.2ZM93.869,52.238H74.654V42.631H93.869Zm-22.417,0H52.238V42.631H71.452Zm-22.417,0H29.821V42.631H49.036Zm-22.417,0H7.4V42.631H26.619ZM97.071,97.071H4.2v-3.2H97.071Zm-41.631-6.4h-3.2V66.649a1.6,1.6,0,0,0-1.6-1.6H18.613a1.6,1.6,0,0,0-1.6,1.6V90.666h-3.2V61.845H55.44Zm-35.226,0V68.25H33.024V90.666ZM36.226,68.25H49.036V90.666H36.226ZM87.464,90.666H68.25V61.845H87.464Zm3.2,0V60.244a1.6,1.6,0,0,0-1.6-1.6H66.649a1.6,1.6,0,0,0-1.6,1.6V90.666h-6.4V60.244a1.6,1.6,0,0,0-1.6-1.6H12.208a1.6,1.6,0,0,0-1.6,1.6V90.666H7.4V55.44H93.869V90.666Zm3.2-51.238H7.4v-3.2H93.869Z"/>
    <path id="Path_1719" data-name="Path 1719" class="cls-1" d="M22.006,9H15.6A1.6,1.6,0,0,0,14,10.6V23.411a1.6,1.6,0,0,0,1.6,1.6h6.4a4.8,4.8,0,0,0,3.577-8.006A4.8,4.8,0,0,0,22.006,9Zm0,12.809H17.2v-3.2h4.8a1.6,1.6,0,0,1,0,3.2Zm0-6.4H17.2V12.2h4.8a1.6,1.6,0,0,1,0,3.2Z" transform="translate(7.815 4.809)"/>
    <path id="Path_1720" data-name="Path 1720" class="cls-1" d="M30.4,9A6.411,6.411,0,0,0,24,15.4v9.607h3.2v-4.8h6.4v4.8h3.2V15.4A6.411,6.411,0,0,0,30.4,9Zm-3.2,8.006V15.4a3.2,3.2,0,1,1,6.4,0v1.6Z" transform="translate(13.827 4.809)"/>
    <path id="Path_1721" data-name="Path 1721" class="cls-1" d="M43.607,18.607,36.882,9.641A1.6,1.6,0,0,0,34,10.6V25.012h3.2V15.4l6.725,8.967a1.6,1.6,0,0,0,1.281.64,1.631,1.631,0,0,0,.506-.082,1.6,1.6,0,0,0,1.1-1.52V9h-3.2Z" transform="translate(19.839 4.809)"/>
    <path id="Path_1722" data-name="Path 1722" class="cls-1" d="M53.607,9H50.4a6.125,6.125,0,0,1-3.2,5.4V9H44V25.012h3.2v-5.4a6.125,6.125,0,0,1,3.2,5.4h3.2a9.3,9.3,0,0,0-4.541-8.006A9.3,9.3,0,0,0,53.607,9Z" transform="translate(25.851 4.809)"/>
    <path id="Path_1723" data-name="Path 1723" class="cls-1" d="M46.6,53.809h9.607a1.6,1.6,0,0,0,1.6-1.6V42.6a1.6,1.6,0,0,0-1.6-1.6H46.6A1.6,1.6,0,0,0,45,42.6v9.607A1.6,1.6,0,0,0,46.6,53.809ZM48.2,44.2h6.4v6.4H48.2Z" transform="translate(26.452 24.047)"/>
  </g>
</svg>
