<svg xmlns="http://www.w3.org/2000/svg" width="113.435" height="116.909" viewBox="0 0 113.435 116.909">
  <g id="game-development" transform="translate(-7.608)">
    <path id="Path_1659" data-name="Path 1659" d="M124.332,35.013h14.39a1.713,1.713,0,1,0,0-3.425h-14.39a1.713,1.713,0,1,0,0,3.425Z" transform="translate(-88.75 -24.375)"/>
    <path id="Path_1660" data-name="Path 1660" d="M120.762,99.941l-1.751-8.752a1.713,1.713,0,0,0-3.359.672l1.751,8.752a10.755,10.755,0,0,1-8.434,12.657,10.745,10.745,0,0,1-12.155-6.7l-8.56-22.342a12.774,12.774,0,1,1,24.453-7.079l1.605,8.014a1.712,1.712,0,1,0,3.358-.673l-1.605-8.014A16.227,16.227,0,0,0,100.2,63.461l0,0H77.945V12.709A12.722,12.722,0,0,0,65.238,0H20.315A12.723,12.723,0,0,0,7.608,12.709V80.328A12.721,12.721,0,0,0,20.315,93.034H38.466L37.083,99.94A14.181,14.181,0,0,0,48.2,116.629a14.315,14.315,0,0,0,2.813.28A14.142,14.142,0,0,0,64.229,107.8l3.666-9.566H89.951l3.666,9.568a14.17,14.17,0,0,0,16.026,8.829,14.18,14.18,0,0,0,11.12-16.688ZM20.315,89.609a9.292,9.292,0,0,1-9.282-9.282V12.709a9.293,9.293,0,0,1,9.282-9.284H65.238a9.293,9.293,0,0,1,9.282,9.284v50.75H70.733V15.2a7.991,7.991,0,0,0-7.982-7.982H56.627a1.713,1.713,0,0,0-1.713,1.713V9.22a4.778,4.778,0,0,1-4.772,4.772H35.413A4.778,4.778,0,0,1,30.64,9.22V8.926a1.712,1.712,0,0,0-1.713-1.713H22.8A7.991,7.991,0,0,0,14.82,15.2v5.722a1.713,1.713,0,0,0,3.425,0V15.2A4.563,4.563,0,0,1,22.8,10.638h4.536a8.21,8.21,0,0,0,8.074,6.779h14.73a8.21,8.21,0,0,0,8.074-6.779h4.534A4.563,4.563,0,0,1,67.309,15.2V63.46H57.754A16.205,16.205,0,0,0,41.78,76.48L40.6,82.4H22.8a4.564,4.564,0,0,1-4.558-4.56V27.768a1.713,1.713,0,1,0-3.425,0V77.839A7.993,7.993,0,0,0,22.8,85.823H39.909l-.758,3.786Zm40.716,16.963a10.755,10.755,0,0,1-20.589-5.96l4.7-23.46a12.783,12.783,0,0,1,12.5-10.27,12.908,12.908,0,0,1,2.534.253,12.773,12.773,0,0,1,9.42,17.1Zm8.176-11.766,3.583-9.351a16.189,16.189,0,0,0-5.172-18.572H90.226a16.188,16.188,0,0,0-5.17,18.572l3.582,9.35H69.207Z" transform="translate(0)"/>
    <path id="Path_1661" data-name="Path 1661" d="M194.249,315.377a5.092,5.092,0,0,0-10.151,0,5.092,5.092,0,0,0,0,10.151,5.092,5.092,0,0,0,10.151,0,5.092,5.092,0,0,0,0-10.151Zm-.413,6.742h-1.283a1.713,1.713,0,0,0-1.713,1.713v1.283a1.667,1.667,0,0,1-3.334,0v-1.283a1.712,1.712,0,0,0-1.713-1.713H184.51a1.667,1.667,0,0,1,0-3.334h1.283a1.713,1.713,0,0,0,1.713-1.713V315.79a1.667,1.667,0,0,1,3.334,0v1.283a1.712,1.712,0,0,0,1.713,1.713h1.283a1.667,1.667,0,1,1,0,3.334Z" transform="translate(-132.58 -239.754)"/>
    <path id="Path_1662" data-name="Path 1662" d="M414.488,320.883a5.092,5.092,0,1,0-5.092-5.092A5.1,5.1,0,0,0,414.488,320.883Zm0-6.759a1.667,1.667,0,1,1-1.667,1.667A1.669,1.669,0,0,1,414.488,314.124Z" transform="translate(-310.045 -239.755)"/>
    <path id="Path_1663" data-name="Path 1663" d="M374.462,340.3a5.092,5.092,0,1,0,5.092,5.092A5.1,5.1,0,0,0,374.462,340.3Zm0,6.759a1.667,1.667,0,1,1,1.667-1.667A1.669,1.669,0,0,1,374.462,347.058Z" transform="translate(-279.158 -262.596)"/>
    <path id="Path_1664" data-name="Path 1664" d="M301.038,369.9h-4.049a4.163,4.163,0,0,0,0,8.326h4.049a4.163,4.163,0,0,0,0-8.326Zm0,4.9h-4.049a.738.738,0,0,1,0-1.475h4.049a.738.738,0,0,1,0,1.475Z" transform="translate(-220.092 -285.438)"/>
    <path id="Path_1665" data-name="Path 1665" d="M90.276,182.878a1.713,1.713,0,0,0,2.422-2.422l-6.166-6.166,6.166-6.166a1.713,1.713,0,0,0-2.422-2.422L82.9,173.079a1.713,1.713,0,0,0,0,2.422Z" transform="translate(-57.713 -127.479)"/>
    <path id="Path_1666" data-name="Path 1666" d="M194.056,182.877a1.713,1.713,0,0,0,2.422,0l7.377-7.377a1.713,1.713,0,0,0,0-2.422l-7.377-7.377a1.713,1.713,0,0,0-2.422,2.422l6.166,6.166-6.166,6.166A1.712,1.712,0,0,0,194.056,182.877Z" transform="translate(-143.488 -127.479)"/>
    <path id="Path_1667" data-name="Path 1667" d="M140.084,170.2a1.711,1.711,0,0,0,2.068-1.26l6.26-25.792a1.712,1.712,0,1,0-3.328-.808l-6.26,25.792A1.712,1.712,0,0,0,140.084,170.2Z" transform="translate(-101.217 -108.826)"/>
  </g>
</svg>
