<svg xmlns="http://www.w3.org/2000/svg" width="108.436" height="99.346" viewBox="0 0 108.436 99.346">
  <defs>
    <style>
      .cls-1 {
        fill: #fff;
      }
    </style>
  </defs>
  <g id="house" transform="translate(0 -21.461)">
    <g id="Group_62" data-name="Group 62" transform="translate(0 21.461)">
      <path id="Path_1747" data-name="Path 1747" class="cls-1" d="M107.282,84.251a6.7,6.7,0,0,0-9.257-1.79L84.187,91.722,84.147,62.9l4.808,4.5a5.473,5.473,0,0,0,3.755,1.484h.008a5.515,5.515,0,0,0,4-1.738,5.494,5.494,0,0,0-.254-7.766l-9.114-8.538A1.548,1.548,0,0,0,85.236,53.1l9.114,8.538a2.4,2.4,0,0,1-1.637,4.149h0a2.388,2.388,0,0,1-1.639-.648h0L54.88,31.236a1.548,1.548,0,0,0-2.119,0l-36.1,34a2.4,2.4,0,0,1-3.289-3.492L52.169,25.206a2.4,2.4,0,0,1,3.284,0l22.7,21.262A1.548,1.548,0,1,0,80.267,44.2L57.57,22.942a5.5,5.5,0,0,0-7.523.01l-12.419,11.7,0-2.087a2.462,2.462,0,0,0-2.462-2.459h0l-8.884.012a2.462,2.462,0,0,0-2.459,2.466L23.84,47.64,11.252,59.5a5.494,5.494,0,0,0,3.6,9.49l.168,0a5.454,5.454,0,0,0,3.763-1.5l4.8-4.519L23.6,76.594a32.615,32.615,0,0,0-4.7-.345H16.254v-.928A5.657,5.657,0,0,0,10.6,69.671H5.651A5.657,5.657,0,0,0,0,75.321V99.575a1.548,1.548,0,1,0,3.1,0V75.321a2.558,2.558,0,0,1,2.555-2.555H10.6a2.558,2.558,0,0,1,2.555,2.555v36.652a2.558,2.558,0,0,1-2.555,2.555H5.651A2.558,2.558,0,0,1,3.1,111.974v-2.708a1.548,1.548,0,1,0-3.1,0v2.708a5.657,5.657,0,0,0,5.651,5.651H10.6a5.657,5.657,0,0,0,5.651-5.651v-.21l22.667,8.583q.063.024.128.042a10.81,10.81,0,0,0,2.943.418,10.019,10.019,0,0,0,1.566-.123l33.31-4.8.023,0a16.307,16.307,0,0,0,7.726-3.462l.057-.049,21.52-19.355A6.7,6.7,0,0,0,107.282,84.251ZM34.529,33.2l.007,4.361-7.606,7.165-.019-11.515Zm19.295,1.286,27.223,25.5.047,33.8-4.382,2.933-4.641-.26-.123-1.233a9.8,9.8,0,0,0-7.874-8.667l-.028-20.108a2.8,2.8,0,0,0-2.8-2.8h0L46.49,63.68a2.8,2.8,0,0,0-2.8,2.8l.025,17.532a29.415,29.415,0,0,1-8.321-3.3q-.488-.286-.986-.553c-.129-.07-.26-.135-.391-.2-.2-.105-.4-.211-.607-.312-.162-.08-.326-.157-.49-.234s-.347-.166-.521-.245-.357-.158-.536-.235c-.164-.071-.327-.142-.492-.21-.184-.076-.37-.149-.555-.222-.165-.064-.329-.128-.495-.19q-.275-.1-.553-.2-.26-.092-.522-.179t-.533-.173c-.19-.06-.381-.117-.572-.174-.164-.048-.328-.1-.493-.142-.215-.06-.432-.116-.648-.172-.1-.026-.2-.055-.3-.081l-.024-17.129Zm7.155,51.688-12.946-1.49-1.22-.14-.025-17.771,14.163-.02Zm43.152,4.528-21.5,19.336a13.208,13.208,0,0,1-6.218,2.779l-33.3,4.8-.021,0-.023,0a7.38,7.38,0,0,1-3.123-.2l-23.7-8.974V79.345H18.9a29.556,29.556,0,0,1,6.674.766l.243.058c.268.065.535.131.8.2l.07.019q.4.109.8.23l.142.043q.423.131.841.273l.086.03q.871.3,1.724.656l.093.039q.425.179.844.37l.022.011q.405.186.805.385l.094.046q.391.2.776.4l.145.079c.259.141.517.285.772.435a32.513,32.513,0,0,0,11.918,4.148l.04.005,17.342,2q.144.021.286.047a6.713,6.713,0,0,1,5.242,4.822,6.8,6.8,0,0,1,.209,1.127l.069.693-32.5-2.848a1.548,1.548,0,1,0-.27,3.084l34.361,3.011h.024l.024,0,6.48.364.087,0c.031,0,.061,0,.091-.007s.069,0,.1-.008.091-.016.137-.026.065-.012.1-.022a1.506,1.506,0,0,0,.145-.053c.026-.01.053-.018.078-.03A1.528,1.528,0,0,0,78,99.584L83.5,95.9h0L99.75,85.031a3.592,3.592,0,0,1,4.381,5.674Z" transform="translate(0 -21.461)"/>
    </g>
  </g>
</svg>
