<svg xmlns="http://www.w3.org/2000/svg" width="97.982" height="99.346" viewBox="0 0 97.982 99.346">
  <defs>
    <style>
      .cls-1 {
        fill: #fff;
      }
    </style>
  </defs>
  <g id="interactive" transform="translate(-3.515)">
    <path id="Path_1748" data-name="Path 1748" class="cls-1" d="M131.032,37.43H115.838a1.455,1.455,0,0,0,0,2.911h15.193a1.455,1.455,0,1,0,0-2.911Z" transform="translate(-89.356 -30.167)"/>
    <path id="Path_1749" data-name="Path 1749" class="cls-1" d="M54.376,40.341H58.8a1.455,1.455,0,0,0,0-2.911H54.376a1.455,1.455,0,0,0,0,2.911Z" transform="translate(-39.819 -30.167)"/>
    <path id="Path_1750" data-name="Path 1750" class="cls-1" d="M54.376,76.295H69.57a1.455,1.455,0,0,0,0-2.911H54.376a1.455,1.455,0,0,0,0,2.911Z" transform="translate(-39.819 -59.145)"/>
    <path id="Path_1751" data-name="Path 1751" class="cls-1" d="M175.748,73.384h-4.428a1.455,1.455,0,0,0,0,2.911h4.428a1.455,1.455,0,0,0,0-2.911Z" transform="translate(-134.071 -59.145)"/>
    <path id="Path_1752" data-name="Path 1752" class="cls-1" d="M92.917,31.6a6.919,6.919,0,0,0-6.751,5.457h-7.95a15.042,15.042,0,0,0-3.326-8.048l9.995-10a9.775,9.775,0,0,0,13.749-13.9A9.778,9.778,0,0,0,83.115,16.66c-.01.009-.02.017-.029.026L72.829,26.953a15.117,15.117,0,0,0-2.021-1.4,14.939,14.939,0,0,0-16.954,1.4l-4.609-4.613a4.88,4.88,0,0,0,.8-2.676V4.908A4.912,4.912,0,0,0,45.136,0H12.109A4.912,4.912,0,0,0,7.2,4.908V19.664a4.912,4.912,0,0,0,4.9,4.908H23.578a1.455,1.455,0,0,0,0-2.911H12.109a2,2,0,0,1-1.994-2V4.908a2,2,0,0,1,1.994-2H45.136a2,2,0,0,1,1.994,2V19.664a2,2,0,0,1-1.994,2H30.3a1.455,1.455,0,1,0,0,2.911H45.136a4.873,4.873,0,0,0,1.858-.367L51.8,29.016a14.973,14.973,0,0,0-3.146,12.26L31.217,51.359l0,0a15.658,15.658,0,0,0-19.865-3.532,15.681,15.681,0,1,0,21.515,5.94L49.5,44.153a14.841,14.841,0,0,0,8.52,8.334V66.66a12.567,12.567,0,0,1-.093,1.66C54.962,64.031,52.236,60.862,47,61.774a4.484,4.484,0,0,0-3.567,2.719,4.708,4.708,0,0,0,.881,4.584L56.541,87.036a13.465,13.465,0,0,1,2.735,8.939,3.377,3.377,0,0,0,3.375,3.371H85.579a3.377,3.377,0,0,0,3.375-3.371V90.039a7.7,7.7,0,0,1,1.074-4.25A15.5,15.5,0,0,0,91.872,79.6a1.488,1.488,0,0,0,.008-.156V74.462a1.455,1.455,0,0,0-2.911,0v4.9a12.6,12.6,0,0,1-1.531,5.094,10.539,10.539,0,0,0-1.4,5.579v5.936a.469.469,0,0,1-.465.461H62.651a.469.469,0,0,1-.465-.461A16.3,16.3,0,0,0,58.947,85.4L46.691,67.4c-.017-.025-.035-.049-.053-.073a1.928,1.928,0,0,1-.494-1.791,1.667,1.667,0,0,1,1.354-.9c3.36-.585,5.159,1.151,8.167,5.53.02.03.042.059.065.087,1.1,1.367,2.2,1.869,3.265,1.493,1.337-.47,1.933-2.041,1.933-5.092V38.853a2.424,2.424,0,1,1,4.829,0v25.1a1.455,1.455,0,1,0,2.911,0V52.3a2.371,2.371,0,0,1,2.415-2.641,2.632,2.632,0,0,1,.816.13q.065.028.133.049A2.408,2.408,0,0,1,73.5,52.3V65.894a1.455,1.455,0,0,0,2.911,0V55.6a2.424,2.424,0,1,1,4.829,0V67.838a1.455,1.455,0,1,0,2.911,0V58.9a2.37,2.37,0,0,1,2.41-2.644,2.436,2.436,0,0,1,1.662.629,2.644,2.644,0,0,1,.751,2.014v8.837a1.455,1.455,0,1,0,2.911,0V58.9a5.263,5.263,0,0,0-5.324-5.554,5.471,5.471,0,0,0-2.6.656,5.2,5.2,0,0,0-5.134-3.952,5.48,5.48,0,0,0-2.605.656,5.153,5.153,0,0,0-1.467-2.533,14.934,14.934,0,0,0,3.471-8.207h7.946A6.9,6.9,0,1,0,92.917,31.6ZM86.871,7.165h0a6.865,6.865,0,0,1,9.7,9.716,6.865,6.865,0,0,1-9.7-9.715ZM25.563,72.475h0A12.745,12.745,0,0,1,8.133,67.8a12.763,12.763,0,1,1,17.43,4.676Zm49.815-33.94a12.031,12.031,0,0,1-3.338,8.3,5.507,5.507,0,0,0-3.374.473V38.853a5.33,5.33,0,1,0-10.65,0V49.317a12.036,12.036,0,1,1,17.362-10.84c0,.012,0,.023,0,.036s0,.015,0,.023Zm17.539,3.973a4,4,0,1,1,3.991-4A4,4,0,0,1,92.917,42.508Z" transform="translate(0)"/>
    <path id="Path_1753" data-name="Path 1753" class="cls-1" d="M55.564,278.73a7.375,7.375,0,0,0-3.815,14.248,7.328,7.328,0,0,0,5.594-.738h0a7.379,7.379,0,0,0-1.78-13.51Zm.323,10.99a4.468,4.468,0,1,1,1.63-6.1A4.432,4.432,0,0,1,55.887,289.72Z" transform="translate(-34.473 -224.442)"/>
  </g>
</svg>
