<svg xmlns="http://www.w3.org/2000/svg" width="99.346" height="99.346" viewBox="0 0 99.346 99.346">
  <defs>
    <style>
      .cls-1 {
        fill: #fff;
      }
    </style>
  </defs>
  <g id="market" transform="translate(-1 -1)">
    <path id="Path_1714" data-name="Path 1714" class="cls-1" d="M95.539,10.614h-3.2v-1.6A4.813,4.813,0,0,0,87.527,4.2H69.9A3.208,3.208,0,0,0,66.7,1H34.649a3.208,3.208,0,0,0-3.2,3.2H13.819A4.813,4.813,0,0,0,9.012,9.012v1.6h-3.2A4.813,4.813,0,0,0,1,15.421V33.047a6.4,6.4,0,0,0,4.807,6.182v48.3A4.813,4.813,0,0,0,1,92.334v6.409a1.6,1.6,0,0,0,1.6,1.6H98.743a1.6,1.6,0,0,0,1.6-1.6V92.334a4.813,4.813,0,0,0-4.807-4.807v-48.3a6.4,6.4,0,0,0,4.807-6.182V15.421A4.813,4.813,0,0,0,95.539,10.614Zm-8.012-3.2a1.6,1.6,0,0,1,1.6,1.6v1.6H69.9v-3.2ZM34.649,4.2H66.7l0,12.819H34.649ZM12.216,9.012a1.6,1.6,0,0,1,1.6-1.6H31.445v3.2H12.216ZM5.807,13.819H31.445v3.2a3.208,3.208,0,0,0,3.2,3.2H66.7a3.208,3.208,0,0,0,3.2-3.2v-3.2H95.539a1.6,1.6,0,0,1,1.6,1.6v8.012H4.2V15.421A1.6,1.6,0,0,1,5.807,13.819Zm75.31,12.819h6.409v6.409a3.2,3.2,0,1,1-6.409,0Zm-9.614,0h6.409v6.409a3.2,3.2,0,1,1-6.409,0Zm-9.614,0H68.3v6.409a3.2,3.2,0,1,1-6.409,0Zm-9.614,0h6.409v6.409a3.2,3.2,0,1,1-6.409,0Zm-9.614,0h6.409v6.409a3.2,3.2,0,0,1-6.409,0Zm-9.614,0h6.409v6.409a3.2,3.2,0,0,1-6.409,0Zm-9.614,0h6.409v6.409a3.2,3.2,0,1,1-6.409,0Zm-9.614,0h6.409v6.409a3.2,3.2,0,1,1-6.409,0ZM4.2,33.047V26.638h6.409v6.409a3.2,3.2,0,1,1-6.409,0ZM9.012,52.275H53.878V74.708H9.012Zm44.866-3.2H9.012v-3.2H53.878ZM9.012,77.913H53.878v9.614H9.012ZM97.141,92.334v4.807H4.2V92.334a1.6,1.6,0,0,1,1.6-1.6H95.539A1.6,1.6,0,0,1,97.141,92.334ZM85.925,49.071H63.492v-3.2H85.925Zm-22.433,3.2H85.925V87.527H63.492ZM89.129,87.527V44.263a1.6,1.6,0,0,0-1.6-1.6H61.889a1.6,1.6,0,0,0-1.6,1.6V87.527h-3.2V44.263a1.6,1.6,0,0,0-1.6-1.6H9.012V39.229a6.37,6.37,0,0,0,3.2-1.987,6.325,6.325,0,0,0,9.614,0,6.325,6.325,0,0,0,9.614,0,6.325,6.325,0,0,0,9.614,0,6.325,6.325,0,0,0,9.614,0,6.325,6.325,0,0,0,9.614,0,6.325,6.325,0,0,0,9.614,0,6.325,6.325,0,0,0,9.614,0,6.325,6.325,0,0,0,9.614,0,6.37,6.37,0,0,0,3.2,1.987v48.3Zm8.012-54.48a3.2,3.2,0,1,1-6.409,0V26.638h6.409Z"/>
    <path id="Path_1715" data-name="Path 1715" class="cls-1" d="M0,0H15.862V3.2H0Z" transform="translate(14.279 68.763) rotate(-45)"/>
    <path id="Path_1716" data-name="Path 1716" class="cls-1" d="M0,0H15.862V3.2H0Z" transform="translate(28.699 68.764) rotate(-45)"/>
    <path id="Path_1717" data-name="Path 1717" class="cls-1" d="M44.831,4H28.807a4.807,4.807,0,1,0,0,9.614H44.831a4.807,4.807,0,1,0,0-9.614Zm0,6.409H28.807a1.6,1.6,0,1,1,0-3.2H44.831a1.6,1.6,0,1,1,0,3.2Z" transform="translate(13.854 1.807)"/>
    <ellipse id="Ellipse_11" data-name="Ellipse 11" class="cls-1" cx="3.167" cy="3.563" rx="3.167" ry="3.563" transform="translate(65.129 63.135)"/>
  </g>
</svg>
