<svg xmlns="http://www.w3.org/2000/svg" width="141.703" height="99.346" viewBox="0 0 141.703 99.346">
  <defs>
    <style>
      .cls-1 {
        fill: #fff;
      }
    </style>
  </defs>
  <g id="mortarboard" transform="translate(0 -76.517)">
    <path id="Path_1746" data-name="Path 1746" class="cls-1" d="M138.969,98.822,109.056,88.713a2.076,2.076,0,1,0-1.329,3.933l29.627,10.013-13.946,6.8a6.3,6.3,0,0,0-1.934-.874L79.643,97.652A8.95,8.95,0,0,0,61.9,99.327v.045a5.32,5.32,0,0,0,5.34,5.249h7.222a5.287,5.287,0,0,0,4.7-2.805l39.01,10.2-43.524,21.22a8.618,8.618,0,0,1-7.59,0L4.349,102.659l63.73-21.538a8.7,8.7,0,0,1,5.545,0L98.506,89.53A2.076,2.076,0,1,0,99.835,85.6L74.953,77.188a12.887,12.887,0,0,0-8.2,0L2.734,98.822a4.031,4.031,0,0,0-.476,7.437l32.853,16.017a196.369,196.369,0,0,1-7.566,26.054,8.208,8.208,0,0,0,2.632,9.3,104.329,104.329,0,0,0,32.165,16.908,27.9,27.9,0,0,0,17.017,0,104.35,104.35,0,0,0,32.165-16.908,8.206,8.206,0,0,0,2.632-9.3,196.463,196.463,0,0,1-7.566-26.054l15.454-7.534v31.243a5.127,5.127,0,0,0-4.73,5.1v6.049a3.062,3.062,0,0,0,1.007,2.268l-.771,11.659a3.956,3.956,0,0,0,3.944,4.213h5.252a3.956,3.956,0,0,0,3.944-4.213l-.771-11.659a3.061,3.061,0,0,0,1.007-2.268v-6.05a5.127,5.127,0,0,0-4.73-5.1V114.7a6.294,6.294,0,0,0-.28-1.843l13.528-6.6a4.031,4.031,0,0,0-.475-7.437ZM74.463,100.47H67.241a1.173,1.173,0,0,1-1.189-1.108v-.035a4.755,4.755,0,0,1,1.511-3.5,4.806,4.806,0,0,1,8.083,3.258A1.179,1.179,0,0,1,74.463,100.47Zm33.456,42.524C96.7,151.772,80.787,158.051,75.3,159.1a2.076,2.076,0,1,0,.778,4.078c5.735-1.094,21.447-7.2,33.241-16.026.29.827.626,1.769.932,2.608a4.066,4.066,0,0,1-1.3,4.606,100.516,100.516,0,0,1-30.873,16.22,23.752,23.752,0,0,1-14.47,0,100.522,100.522,0,0,1-30.873-16.22,4.065,4.065,0,0,1-1.3-4.606l.036-.1c.3-.826.636-1.764.9-2.508,11.516,8.616,27.185,14.873,33.24,16.028A2.076,2.076,0,0,0,66.4,159.1c-5.176-.987-21.147-7.133-32.613-16.1a195.081,195.081,0,0,0,5.175-18.843l26.28,12.812a12.733,12.733,0,0,0,11.229,0l26.278-12.812A195.011,195.011,0,0,0,107.919,142.994Zm13.787,28.133.722-10.916h3.382l.722,10.916Zm5.067-20.038v4.97h-5.308v-4.97a.985.985,0,0,1,.972-.972H125.8A.985.985,0,0,1,126.774,151.089Z" transform="translate(0)"/>
  </g>
</svg>
