<svg xmlns="http://www.w3.org/2000/svg" width="117.702" height="99.273" viewBox="0 0 117.702 99.273">
  <defs>
    <style>
      .cls-1 {
        fill: #fff;
      }
    </style>
  </defs>
  <g id="online-shop" transform="translate(0 -40.081)">
    <g id="Group_54" data-name="Group 54" transform="translate(0 40.081)">
      <g id="Group_53" data-name="Group 53">
        <path id="Path_1724" data-name="Path 1724" class="cls-1" d="M110.449,40.081H7.253A7.261,7.261,0,0,0,0,47.333V117.36a7.261,7.261,0,0,0,7.253,7.252h34.9l-1.412,11.294H34.894a1.724,1.724,0,0,0,0,3.448H82.807a1.724,1.724,0,1,0,0-3.448H76.958l-1.412-11.294h34.9a7.261,7.261,0,0,0,7.253-7.252V47.333A7.261,7.261,0,0,0,110.449,40.081Zm-66.23,95.825,1.412-11.294h6.346l.623,2.49a6.445,6.445,0,0,0,12.5,0l.623-2.49h6.346l1.411,11.294Zm11.312-11.294h6.64l-.413,1.653a3,3,0,0,1-5.814,0Zm58.723-7.252h0a3.809,3.809,0,0,1-3.8,3.8H7.253a3.809,3.809,0,0,1-3.8-3.8V47.333a3.809,3.809,0,0,1,3.8-3.8h103.2a3.809,3.809,0,0,1,3.8,3.8V117.36Z" transform="translate(0 -40.081)"/>
      </g>
    </g>
    <g id="Group_56" data-name="Group 56" transform="translate(7.371 47.452)">
      <g id="Group_55" data-name="Group 55">
        <path id="Path_1725" data-name="Path 1725" class="cls-1" d="M122.242,72.146H33.788a1.724,1.724,0,0,0-1.724,1.724v66.34a1.724,1.724,0,0,0,1.724,1.724h3.686a1.724,1.724,0,0,0,0-3.448H35.513V75.594h86.73a1.724,1.724,0,1,0,0-3.448Z" transform="translate(-32.064 -72.146)"/>
      </g>
    </g>
    <g id="Group_58" data-name="Group 58" transform="translate(18.428 47.452)">
      <g id="Group_57" data-name="Group 57">
        <path id="Path_1726" data-name="Path 1726" class="cls-1" d="M170.34,72.146h-3.686a1.724,1.724,0,0,0,0,3.448h1.962v62.892H81.886a1.724,1.724,0,1,0,0,3.448H170.34a1.724,1.724,0,0,0,1.724-1.724V73.87A1.724,1.724,0,0,0,170.34,72.146Z" transform="translate(-80.162 -72.146)"/>
      </g>
    </g>
    <g id="Group_60" data-name="Group 60" transform="translate(31.328 58.509)">
      <g id="Group_59" data-name="Group 59">
        <path id="Path_1727" data-name="Path 1727" class="cls-1" d="M187.27,128.274a1.724,1.724,0,0,0-1.279-.66l-40.541-1.843-.095,0a3.573,3.573,0,0,0-1.434-1.929l-4.965-3.31a1.724,1.724,0,0,0-1.913,2.869l4.965,3.309a.12.12,0,0,1,.049.066l6.324,22.134a5.429,5.429,0,0,0,.939,1.846l-2.314,4.628a3.544,3.544,0,0,0,.156,3.47,3.581,3.581,0,0,0,.885.973,5.409,5.409,0,1,0,9.736.718H173.5a5.41,5.41,0,1,0,9.882-.448,1.722,1.722,0,0,0-1.156-3H150.2a.119.119,0,0,1-.106-.172l2.132-4.263a5.411,5.411,0,0,0,1.348.172,5.556,5.556,0,0,0,.645-.038l24.227-2.85a7.235,7.235,0,0,0,6.264-5.781l2.9-14.491A1.724,1.724,0,0,0,187.27,128.274Zm-8.729,32.272a1.961,1.961,0,1,1-1.961,1.961A1.964,1.964,0,0,1,178.541,160.546Zm-25.8,0a1.961,1.961,0,1,1-1.961,1.961A1.963,1.963,0,0,1,152.742,160.546Zm-4.228-23.719-2.161-7.562,6.893.313,1.2,7.249Zm5.3,12.545a1.953,1.953,0,0,1-2.115-1.409l-2.2-7.688h5.511l1.449,8.785Zm10.106-1.189-4.03.474-1.382-8.382h5.412Zm0-11.356h-5.981l-1.169-7.089,7.15.325Zm8.732,10.329-5.283.622v-7.5h5.906Zm.935-10.329h-6.218v-6.607l6.788.309Zm7.739,6.663a3.8,3.8,0,0,1-3.286,3.032l-1.889.222.586-6.469h5.232Zm1.333-6.663h-5.609l.556-6.142,6.225.283Z" transform="translate(-136.276 -120.241)"/>
      </g>
    </g>
  </g>
</svg>
