<svg xmlns="http://www.w3.org/2000/svg" width="113.435" height="113.435" viewBox="0 0 113.435 113.435">
  <defs>
    <style>
      .cls-1 {
        fill: #fff;
      }
    </style>
  </defs>
  <g id="Outline" transform="translate(-2 -2)">
    <g id="Group_20" data-name="Group 20" transform="translate(2 2)">
      <path id="Path_1671" data-name="Path 1671" class="cls-1" d="M23,10.562a1.891,1.891,0,0,0,1.891,1.891h1.891v7.562a13.234,13.234,0,0,0,7.562,11.939V35.14a1.891,1.891,0,0,0,3.781,0V33.1a13.283,13.283,0,0,0,1.891.151V35.14a1.891,1.891,0,1,0,3.781,0V32.448a9.466,9.466,0,0,0,2.859-1.936,9.373,9.373,0,0,0,6.594,2.738H57.03a1.891,1.891,0,0,0,1.891-1.891A9.383,9.383,0,0,0,56.5,25.1a1.891,1.891,0,0,0,.531-1.3A13.249,13.249,0,0,0,43.8,10.562a1.891,1.891,0,0,0,0,3.781,9.468,9.468,0,0,1,9.264,7.562H45.687a7.562,7.562,0,0,1-7.562-7.562V8.672a5.672,5.672,0,1,0-11.343,0H24.891A1.891,1.891,0,0,0,23,10.562ZM53.249,29.468A5.628,5.628,0,0,1,48.8,27.243a9.224,9.224,0,0,0,.484-1.556h.189a5.683,5.683,0,0,1,5.348,3.781ZM30.562,8.672a1.891,1.891,0,1,1,3.781,0v5.672a11.343,11.343,0,0,0,11,11.326,5.672,5.672,0,0,1-5.33,3.8,9.464,9.464,0,0,1-9.453-9.453Z" transform="translate(16.702 -1.109)"/>
      <path id="Path_1672" data-name="Path 1672" class="cls-1" d="M41.891,5.781h7.562v7.562a1.891,1.891,0,1,0,3.781,0V3.891A1.891,1.891,0,0,0,51.343,2H41.891a1.891,1.891,0,0,0,0,3.781Z" transform="translate(31.842 -2)"/>
      <path id="Path_1673" data-name="Path 1673" class="cls-1" d="M18.891,15.234a1.891,1.891,0,0,0,1.891-1.891V5.781h7.562a1.891,1.891,0,0,0,0-3.781H18.891A1.891,1.891,0,0,0,17,3.891v9.453A1.891,1.891,0,0,0,18.891,15.234Z" transform="translate(11.359 -2)"/>
      <path id="Path_1674" data-name="Path 1674" class="cls-1" d="M51.343,16a1.891,1.891,0,0,0-1.891,1.891v7.562H41.891a1.891,1.891,0,0,0,0,3.781h9.453a1.891,1.891,0,0,0,1.891-1.891V17.891A1.891,1.891,0,0,0,51.343,16Z" transform="translate(31.842 10.468)"/>
      <path id="Path_1675" data-name="Path 1675" class="cls-1" d="M18.891,29.234h9.453a1.891,1.891,0,1,0,0-3.781H20.781V17.891a1.891,1.891,0,0,0-3.781,0v9.453A1.891,1.891,0,0,0,18.891,29.234Z" transform="translate(11.359 10.468)"/>
      <path id="Path_1676" data-name="Path 1676" class="cls-1" d="M113.544,38a1.891,1.891,0,0,0-1.891,1.891v34.03a5.672,5.672,0,0,1-5.672,5.672H11.453a5.672,5.672,0,0,1-5.672-5.672V62.577a1.891,1.891,0,0,0-3.781,0V73.921a9.464,9.464,0,0,0,9.453,9.453h94.529a9.464,9.464,0,0,0,9.453-9.453V39.891A1.891,1.891,0,0,0,113.544,38Z" transform="translate(-2 30.061)"/>
      <path id="Path_1677" data-name="Path 1677" class="cls-1" d="M105.982,26H11.453A9.464,9.464,0,0,0,2,35.453V65.7a1.891,1.891,0,0,0,3.781,0V35.453a5.672,5.672,0,0,1,5.672-5.672h94.529a5.672,5.672,0,0,1,5.672,5.672v7.562a1.891,1.891,0,0,0,3.781,0V35.453A9.464,9.464,0,0,0,105.982,26Z" transform="translate(-2 19.374)"/>
      <path id="Path_1678" data-name="Path 1678" class="cls-1" d="M25.747,51.3A30.684,30.684,0,0,0,23,62.914a17.251,17.251,0,0,0,.106,1.86,1.89,1.89,0,1,0,3.759-.407,13.675,13.675,0,0,1-.084-1.454,22.1,22.1,0,0,1,.873-5.723l1.174,2.7a1.891,1.891,0,0,0,3.07.582l4.042-4.04,2.5,3.753a1.891,1.891,0,0,0,1.384.841,1.858,1.858,0,0,0,1.524-.544l4.337-4.345,4.335,4.335a1.845,1.845,0,0,0,1.526.554,1.891,1.891,0,0,0,1.386-.832l.07-.106a17.85,17.85,0,0,1,.246,2.828A13.155,13.155,0,0,1,37.221,75.83a1.86,1.86,0,0,0,.9-1.573,1.891,1.891,0,1,0-3.653.641,13.264,13.264,0,0,1-5.25-4.348,1.893,1.893,0,0,0-3.085,2.195A17.015,17.015,0,0,0,57.03,62.914a27.4,27.4,0,0,0-1.412-8.041,1.891,1.891,0,0,0-3.375-.476l-1.178,1.768-4.042-4.04a1.891,1.891,0,0,0-2.673,0l-4.042,4.04-2.5-3.753a1.891,1.891,0,0,0-1.386-.832c-.057,0-.108.021-.163.019l.981-1.571,4.4,2.426a1.891,1.891,0,0,0,2.715-1.087L46.2,45.521l5.848,1.847a1.891,1.891,0,0,0,2.458-1.6l.48-4.405a1.891,1.891,0,0,0-.544-1.545c-6.114-6.1-15.125-10.776-21.473-7.475h0c-4.789,2.488-7.286,9.247-6.683,18.081a1.121,1.121,0,0,0,.036.153A1.891,1.891,0,0,0,25.747,51.3Zm5.441,4.537L29.736,52.5l4.055.728Zm.189-15.983a1.841,1.841,0,0,0,1.076.376,1.891,1.891,0,0,0,1.891-1.891,1.864,1.864,0,0,0-.97-1.616A5.717,5.717,0,0,1,34.706,35.7h0a6.91,6.91,0,0,1,3.97-.6,1.923,1.923,0,1,0,3.1.756,28.548,28.548,0,0,1,9.336,6.021l-.13,1.193-5.451-1.72a1.891,1.891,0,0,0-2.371,1.233l-1.722,5.449-3.951-2.174a1.891,1.891,0,0,0-2.516.654l-1.737,2.781-3.257-.586a22.177,22.177,0,0,1,1.4-8.859Z" transform="translate(16.702 24.053)"/>
      <circle id="Ellipse_5" data-name="Ellipse 5" class="cls-1" cx="2" cy="2" r="2" transform="translate(47 88.434)"/>
      <ellipse id="Ellipse_6" data-name="Ellipse 6" class="cls-1" cx="2" cy="1.5" rx="2" ry="1.5" transform="translate(60 85.434)"/>
      <ellipse id="Ellipse_7" data-name="Ellipse 7" class="cls-1" cx="1.5" cy="2" rx="1.5" ry="2" transform="translate(59 92.434)"/>
      <circle id="Ellipse_8" data-name="Ellipse 8" class="cls-1" cx="2" cy="2" r="2" transform="translate(53 64.434)"/>
      <path id="Path_1679" data-name="Path 1679" class="cls-1" d="M51.343,32.891A1.891,1.891,0,0,0,49.453,31H41.891a1.891,1.891,0,0,0,0,3.781h5.672v5.672a1.891,1.891,0,1,0,3.781,0Z" transform="translate(31.842 23.827)"/>
      <path id="Path_1680" data-name="Path 1680" class="cls-1" d="M27.453,31H19.891A1.891,1.891,0,0,0,18,32.891v7.562a1.891,1.891,0,1,0,3.781,0V34.781h5.672a1.891,1.891,0,1,0,0-3.781Z" transform="translate(12.249 23.827)"/>
      <path id="Path_1681" data-name="Path 1681" class="cls-1" d="M49.453,52a1.891,1.891,0,0,0-1.891,1.891v5.672H41.891a1.891,1.891,0,0,0,0,3.781h7.562a1.891,1.891,0,0,0,1.891-1.891V53.891A1.891,1.891,0,0,0,49.453,52Z" transform="translate(31.842 42.529)"/>
      <path id="Path_1682" data-name="Path 1682" class="cls-1" d="M18,61.453a1.891,1.891,0,0,0,1.891,1.891h7.562a1.891,1.891,0,1,0,0-3.781H21.781V53.891a1.891,1.891,0,0,0-3.781,0Z" transform="translate(12.249 42.529)"/>
      <path id="Path_1683" data-name="Path 1683" class="cls-1" d="M52,66.577a1.891,1.891,0,0,0,1.891,1.891h7.562a1.891,1.891,0,0,0,1.891-1.891V43.891A1.891,1.891,0,0,0,61.453,42H53.891A1.891,1.891,0,0,0,52,43.891Zm7.562-9.453H55.781V53.343h3.781Zm0,7.562H55.781V60.906h3.781ZM55.781,45.781h3.781v3.781H55.781Z" transform="translate(42.529 33.623)"/>
      <path id="Path_1684" data-name="Path 1684" class="cls-1" d="M15.453,66.906A9.453,9.453,0,1,0,6,57.453a9.453,9.453,0,0,0,9.453,9.453Zm0-15.125a5.672,5.672,0,1,1-5.672,5.672,5.672,5.672,0,0,1,5.672-5.672Z" transform="translate(1.562 38.967)"/>
      <path id="Path_1685" data-name="Path 1685" class="cls-1" d="M8.554,50.008a1.891,1.891,0,0,0,2.673,0l2.445-2.445,2.445,2.445a1.89,1.89,0,1,0,2.673-2.673l-3.781-3.781a1.891,1.891,0,0,0-2.673,0L8.554,47.335A1.891,1.891,0,0,0,8.554,50.008Z" transform="translate(3.344 34.514)"/>
      <circle id="Ellipse_9" data-name="Ellipse 9" class="cls-1" cx="2" cy="2" r="2" transform="translate(9 54.434)"/>
      <circle id="Ellipse_10" data-name="Ellipse 10" class="cls-1" cx="2" cy="2" r="2" transform="translate(9 62.434)"/>
      <path id="Path_1686" data-name="Path 1686" class="cls-1" d="M51.781,36.672V32.891a1.891,1.891,0,0,0-3.781,0v3.781a1.891,1.891,0,1,0,3.781,0Z" transform="translate(38.967 23.827)"/>
      <path id="Path_1687" data-name="Path 1687" class="cls-1" d="M53.891,38.562a1.891,1.891,0,0,0,1.891-1.891V32.891a1.891,1.891,0,1,0-3.781,0v3.781A1.891,1.891,0,0,0,53.891,38.562Z" transform="translate(42.529 23.827)"/>
      <path id="Path_1688" data-name="Path 1688" class="cls-1" d="M59.781,36.672V32.891a1.891,1.891,0,1,0-3.781,0v3.781a1.891,1.891,0,1,0,3.781,0Z" transform="translate(46.091 23.827)"/>
    </g>
  </g>
</svg>
