<svg xmlns="http://www.w3.org/2000/svg" width="89.5" height="89.5" viewBox="0 0 89.5 89.5">
  <defs>
    <style>
      .cls-1 {
        fill: #fff;
      }
    </style>
  </defs>
  <g id="Outline" transform="translate(-2 -2)">
    <g id="Group_61" data-name="Group 61" transform="translate(2 2)">
      <path id="Path_1730" data-name="Path 1730" class="cls-1" d="M40.492,28.983H47.95a1.492,1.492,0,1,0,0-2.983H40.492a1.492,1.492,0,1,0,0,2.983Z" transform="translate(16.191 9.8)"/>
      <path id="Path_1731" data-name="Path 1731" class="cls-1" d="M90.008,30.917a1.492,1.492,0,0,0-1.492,1.492V81.633H12.442A7.458,7.458,0,1,1,19.9,74.175a1.492,1.492,0,1,0,2.983,0V33.9h4.475a1.492,1.492,0,0,0,0-2.983H22.883V26.442A10.442,10.442,0,1,0,2,26.442V74.175A10.454,10.454,0,0,0,12.442,84.616H90.008A1.492,1.492,0,0,0,91.5,83.125V32.408A1.492,1.492,0,0,0,90.008,30.917ZM4.983,26.442a7.458,7.458,0,1,1,14.917,0V66.866a10.428,10.428,0,0,0-14.917,0Z" transform="translate(-2 4.883)"/>
      <path id="Path_1732" data-name="Path 1732" class="cls-1" d="M48.106,56.255l2.387,5.967h0l3.58,8.95a1.492,1.492,0,0,0,2.772,0l3.58-8.95h0l2.387-5.967a1.474,1.474,0,0,0,.094-.5c0-.019.012-.036.012-.057V30.342a1.492,1.492,0,1,0-2.983,0V54.208H56.95V19.9h2.983v4.475a1.492,1.492,0,1,0,2.983,0V9.458A7.458,7.458,0,1,0,48,9.458V55.7c0,.021.01.037.012.058a1.472,1.472,0,0,0,.094.5Zm5.976,6.9h2.754L55.458,66.6Zm3.947-2.983h-5.14l-1.193-2.983h7.527Zm-4.062-5.967H50.983V19.9h2.983ZM50.983,16.917V13.933h8.95v2.983Zm0-7.458a4.475,4.475,0,1,1,8.95,0V10.95h-8.95Z" transform="translate(20.616 -2)"/>
      <path id="Path_1733" data-name="Path 1733" class="cls-1" d="M26.465,29.415v.717a4.448,4.448,0,0,0,0,8.4v.279a8.96,8.96,0,0,0,6.172,8.5A12.381,12.381,0,0,1,26.852,50.6l-2.275.57a7.355,7.355,0,0,0,1.784,14.5h3.088a1.492,1.492,0,0,0,0-2.983H26.361A4.372,4.372,0,0,1,25.3,54.066l2.275-.568a15.364,15.364,0,0,0,8.62-5.774,8.957,8.957,0,0,0,8.168-8.911v-.274a4.448,4.448,0,0,0,0-8.4v-.722a13.383,13.383,0,0,0,2.606-16.81,1.492,1.492,0,1,0-2.57,1.517A10.4,10.4,0,0,1,41.94,27.561a1.492,1.492,0,0,0-.558,1.163v1.138H40.065l1.308-11.769a1.492,1.492,0,0,0-1.954-1.58l-4,1.335-4-1.335a1.492,1.492,0,0,0-1.954,1.58l1.308,11.769H29.449V28.729a1.492,1.492,0,0,0-.558-1.164A10.431,10.431,0,0,1,40.709,10.434a1.492,1.492,0,1,0,1.517-2.57A13.416,13.416,0,0,0,26.465,29.415Zm8.95,15.364a5.967,5.967,0,0,1-5.967-5.967H41.382A5.967,5.967,0,0,1,35.415,44.779Zm-2.734-24.7,2.263.755a1.492,1.492,0,0,0,.943,0l2.263-.755-1.086,9.781H33.775Zm-.249,12.764H42.874a1.492,1.492,0,0,1,0,2.983H27.957a1.492,1.492,0,1,1,0-2.983Z" transform="translate(6.351 -0.03)"/>
      <circle id="Ellipse_12" data-name="Ellipse 12" class="cls-1" cx="1.5" cy="1.5" r="1.5" transform="translate(22 18)"/>
      <circle id="Ellipse_13" data-name="Ellipse 13" class="cls-1" cx="1.5" cy="1.5" r="1.5" transform="translate(58 18)"/>
      <circle id="Ellipse_14" data-name="Ellipse 14" class="cls-1" cx="1.5" cy="1.5" r="1.5" transform="translate(40)"/>
      <path id="Path_1734" data-name="Path 1734" class="cls-1" d="M19.354,10.784a1.492,1.492,0,1,0-.546-2.038,1.492,1.492,0,0,0,.546,2.038Z" transform="translate(6.165 0.95)"/>
      <path id="Path_1735" data-name="Path 1735" class="cls-1" d="M40.138,22.784a1.492,1.492,0,1,0-.546-2.038A1.492,1.492,0,0,0,40.138,22.784Z" transform="translate(16.384 6.85)"/>
      <circle id="Ellipse_15" data-name="Ellipse 15" class="cls-1" cx="1.492" cy="1.492" r="1.492" transform="matrix(0.966, -0.259, 0.259, 0.966, 48.89, 2.836)"/>
      <path id="Path_1736" data-name="Path 1736" class="cls-1" d="M41.63,10.784a1.492,1.492,0,1,0-2.038-.546,1.492,1.492,0,0,0,2.038.546Z" transform="translate(16.384 0.95)"/>
      <path id="Path_1737" data-name="Path 1737" class="cls-1" d="M21.392,20.746a1.492,1.492,0,1,0-.546,2.038A1.492,1.492,0,0,0,21.392,20.746Z" transform="translate(6.165 6.85)"/>
      <path id="Path_1738" data-name="Path 1738" class="cls-1" d="M25.238,6.392A1.492,1.492,0,1,0,23.2,5.846,1.492,1.492,0,0,0,25.238,6.392Z" transform="translate(8.325 -1.21)"/>
      <path id="Path_1739" data-name="Path 1739" class="cls-1" d="M38.406,62.85h5.967a1.492,1.492,0,0,0,1.492-1.492V58.851a10.247,10.247,0,0,0,1.453-.837l2.169,1.253a1.492,1.492,0,0,0,2.038-.546l2.983-5.167a1.492,1.492,0,0,0-.546-2.038L51.8,50.265c.024-.282.036-.561.036-.84s-.012-.558-.036-.84l2.166-1.252a1.492,1.492,0,0,0,.546-2.038l-2.983-5.167a1.492,1.492,0,0,0-2.038-.546l-2.169,1.253A10.248,10.248,0,0,0,45.865,40V37.492A1.492,1.492,0,0,0,44.373,36H38.406a1.492,1.492,0,0,0-1.492,1.492V40a10.248,10.248,0,0,0-1.453.837l-2.169-1.253a1.492,1.492,0,0,0-2.038.546L28.272,45.3a1.492,1.492,0,0,0,.546,2.038l2.166,1.252c-.024.282-.036.561-.036.84s.012.558.036.84l-2.166,1.252A1.492,1.492,0,1,0,30.31,54.1l3.025-1.751a1.492,1.492,0,0,0,.722-1.562,7.13,7.13,0,0,1,0-2.724,1.492,1.492,0,0,0-.722-1.562L31.6,45.5l1.492-2.584,1.739,1.005a1.492,1.492,0,0,0,1.715-.158A7.449,7.449,0,0,1,38.9,42.4,1.492,1.492,0,0,0,39.9,41V38.983h2.983V41a1.492,1.492,0,0,0,.993,1.405,7.45,7.45,0,0,1,2.357,1.359,1.492,1.492,0,0,0,1.715.158l1.739-1.005L51.178,45.5,49.445,46.5a1.492,1.492,0,0,0-.722,1.562,7.13,7.13,0,0,1,0,2.724,1.492,1.492,0,0,0,.722,1.562l1.739,1.005-1.492,2.584-1.739-1.005a1.492,1.492,0,0,0-1.715.158,7.45,7.45,0,0,1-2.357,1.359,1.492,1.492,0,0,0-.993,1.405v2.012H39.9V57.854a1.492,1.492,0,0,0-.993-1.405,7.45,7.45,0,0,1-2.357-1.359,1.492,1.492,0,0,0-1.715-.158L31.8,56.683a1.492,1.492,0,1,0,1.492,2.584l2.169-1.253a10.247,10.247,0,0,0,1.453.837v2.507A1.492,1.492,0,0,0,38.406,62.85Z" transform="translate(10.818 14.716)"/>
      <path id="Path_1740" data-name="Path 1740" class="cls-1" d="M42.95,46.475a4.475,4.475,0,1,0-4.475,4.475A4.475,4.475,0,0,0,42.95,46.475Zm-5.967,0a1.492,1.492,0,1,1,1.492,1.492A1.492,1.492,0,0,1,36.983,46.475Z" transform="translate(13.733 17.666)"/>
      <path id="Path_1741" data-name="Path 1741" class="cls-1" d="M38.492,61.442h17.9a5.967,5.967,0,0,0,5.967-5.967V52.492a1.492,1.492,0,1,0-2.983,0v2.983a2.983,2.983,0,0,1-2.983,2.983h-17.9a1.492,1.492,0,1,0,0,2.983Z" transform="translate(15.208 22.091)"/>
      <path id="Path_1742" data-name="Path 1742" class="cls-1" d="M20,55.475A4.475,4.475,0,1,0,24.475,51,4.475,4.475,0,0,0,20,55.475Zm5.967,0a1.492,1.492,0,1,1-1.492-1.492A1.492,1.492,0,0,1,25.967,55.475Z" transform="translate(6.85 22.091)"/>
    </g>
  </g>
</svg>
