<svg xmlns="http://www.w3.org/2000/svg" width="85.161" height="85.149" viewBox="0 0 85.161 85.149">
  <defs>
    <style>
      .cls-1 {
        fill: #fff;
      }
    </style>
  </defs>
  <g id="Outline" transform="translate(-2 -2)">
    <path id="Path_1728" data-name="Path 1728" class="cls-1" d="M86.457,39.551l-.02-.034a6.723,6.723,0,0,0-8.67-2.3l-9.093,4.65a7.827,7.827,0,0,0-9.933-2.431L47.289,45.3a4.162,4.162,0,0,1-3.858-.024l-7.8-4.144a18.12,18.12,0,0,0-18.933,1.147l-.881-4.2a1.419,1.419,0,0,0-1.687-1.1l-11,2.374a1.419,1.419,0,0,0-1.09,1.677L8.437,71.564A1.419,1.419,0,0,0,9.825,72.7a1.505,1.505,0,0,0,.3-.031l11.01-2.37a1.419,1.419,0,0,0,1.09-1.679l-.568-2.732,3.762-.81a9.732,9.732,0,0,1,3.336-.128l17.693,1.94a15.184,15.184,0,0,0,10.471-2.458L85.259,45.417a4.281,4.281,0,0,0,1.2-5.866ZM10.92,69.586,5.1,41.837l8.23-1.774,5.818,27.751ZM83.68,43.064,55.338,62.079a12.378,12.378,0,0,1-8.555,1.987L29.09,62.126a12.365,12.365,0,0,0-4.274.17l-3.749.806L17.326,45.3l.969-.675a15.29,15.29,0,0,1,16-.985l7.8,4.144a7,7,0,0,0,6.486.044l11.454-5.876a5.019,5.019,0,0,1,6.628,1.955,1.435,1.435,0,0,1-.5,1.95L50.374,55.227a12.512,12.512,0,0,1-9.184,1.455L26.948,53.276l-.658,2.761,14.254,3.406a15.336,15.336,0,0,0,11.277-1.775L67.612,48.3a4.257,4.257,0,0,0,2.065-3.765l9.377-4.8a3.881,3.881,0,0,1,4.994,1.318l.016.024a1.457,1.457,0,0,1-.383,1.982Z" transform="translate(0 14.45)"/>
    <rect id="Rectangle_849" data-name="Rectangle 849" class="cls-1" width="2.838" height="2.835" transform="matrix(0.979, -0.206, 0.206, 0.979, 8.409, 58.467)"/>
    <path id="Path_1729" data-name="Path 1729" class="cls-1" d="M39.558,55.651a1.419,1.419,0,0,0,1.672,0c14.239-10.386,23-20.289,26.188-29.527h7.294a4.257,4.257,0,1,0,0-2.838h-6.5a23.042,23.042,0,0,0,.5-3.177A16.126,16.126,0,0,0,65.144,8,15,15,0,0,0,53.127,2,20.826,20.826,0,0,0,40.394,6.992,20.826,20.826,0,0,0,27.661,2,15.011,15.011,0,0,0,15.642,8a16.134,16.134,0,0,0-3.566,12.111C12.932,31.014,22.178,42.973,39.558,55.651Zm39.15-32.365A1.419,1.419,0,1,1,77.289,24.7,1.419,1.419,0,0,1,78.708,23.286ZM17.752,9.894a1.367,1.367,0,0,0,.177-.216,12.2,12.2,0,0,1,9.732-4.84c6.576,0,11.679,5.008,11.73,5.057a1.419,1.419,0,0,0,2.008,0c.051-.053,5.117-5.057,11.728-5.057a12.111,12.111,0,0,1,9.732,4.84,1.366,1.366,0,0,0,.177.216,13.2,13.2,0,0,1,2.847,9.986,19.811,19.811,0,0,1-.582,3.406H53.989l-5.267-9.224a1.419,1.419,0,0,0-2.554.177L39.15,31.8l-4.5-14.608a1.419,1.419,0,0,0-2.573-.314l-3.844,6.407H19.109v2.838h9.933a1.419,1.419,0,0,0,1.216-.688l2.615-4.367,4.741,15.405a1.419,1.419,0,0,0,1.3.993h.062a1.419,1.419,0,0,0,1.318-.893l7.422-18.557L51.934,25.4a1.419,1.419,0,0,0,1.232.727h11.21c-2.627,6.687-9.16,15.655-23.982,26.62-20-14.792-24.906-25.956-25.48-32.75A13.2,13.2,0,0,1,17.752,9.894Z" transform="translate(4.177 0)"/>
    <rect id="Rectangle_850" data-name="Rectangle 850" class="cls-1" width="11.335" height="2.267" transform="translate(2 23.536)"/>
  </g>
</svg>
