<svg xmlns="http://www.w3.org/2000/svg" width="87.43" height="99.346" viewBox="0 0 87.43 99.346">
  <defs>
    <style>
      .cls-1 {
        fill: #fff;
        fill-rule: evenodd;
      }
    </style>
  </defs>
  <g id="video" transform="translate(0)">
    <path id="Path_1743" data-name="Path 1743" class="cls-1" d="M85.49,40.1h-66.2l63.585-18.42a1.941,1.941,0,0,0,1.324-2.4L80.872,7.792A10.862,10.862,0,0,0,70.484,0,10.75,10.75,0,0,0,67.5.425L7.8,17.719A10.824,10.824,0,0,0,.428,31.1L3.679,42.318V88.547a10.81,10.81,0,0,0,10.8,10.8H37.793a1.94,1.94,0,0,0,0-3.881H14.478A6.925,6.925,0,0,1,7.56,88.547V62.142h75.99V88.547a6.925,6.925,0,0,1-6.918,6.918H53.316a1.94,1.94,0,0,0,0,3.881H76.632a10.811,10.811,0,0,0,10.8-10.8v-46.5A1.94,1.94,0,0,0,85.49,40.1ZM51.275,58.261l8.244-14.278H70.242L62,58.261Zm-15.2,0,8.244-14.278H55.038L46.794,58.261Zm-15.2,0,8.243-14.278H39.834L31.59,58.261Zm7.214-25.119L14.276,19.882l10.344-3a1.925,1.925,0,0,0,.255.3L38.68,30.445l-10.344,3A1.931,1.931,0,0,0,28.081,33.142Zm26-24.417,13.805,13.26-10.344,3a1.89,1.89,0,0,0-.255-.3L43.484,11.422l10.344-3A1.925,1.925,0,0,0,54.082,8.725Zm-14.6,4.231L53.283,26.214l-10.344,3a1.89,1.89,0,0,0-.255-.3L28.879,15.652l10.344-3A2.05,2.05,0,0,0,39.478,12.956Zm29.1-8.8a6.86,6.86,0,0,1,1.909-.272,6.962,6.962,0,0,1,6.661,4.992l2.788,9.622L72.148,20.75a1.973,1.973,0,0,0-.255-.3L58.088,7.191ZM4.75,24.759a6.867,6.867,0,0,1,4.126-3.312l1.14-.33a1.973,1.973,0,0,0,.255.3l13.805,13.26L6.944,39.638,4.156,30.016A6.869,6.869,0,0,1,4.75,24.759ZM7.56,43.983H24.63L16.386,58.261H7.56ZM66.48,58.261l8.243-14.278h8.826V58.261Zm0,0" transform="translate(0)"/>
    <path id="Path_1744" data-name="Path 1744" class="cls-1" d="M216.994,356.174a1.94,1.94,0,0,0-.97-1.68l-17.047-9.842a1.94,1.94,0,0,0-2.911,1.68v19.684a1.939,1.939,0,0,0,2.911,1.68l17.047-9.841A1.94,1.94,0,0,0,216.994,356.174Zm-17.047,6.481V349.693l11.226,6.481Zm0,0" transform="translate(-158.023 -277.568)"/>
    <path id="Path_1745" data-name="Path 1745" class="cls-1" d="M226.714,492a1.94,1.94,0,1,0,1.94,1.94A1.944,1.944,0,0,0,226.714,492Zm0,0" transform="translate(-181.159 -396.535)"/>
  </g>
</svg>
