<svg xmlns="http://www.w3.org/2000/svg" width="111.202" height="99.932" viewBox="0 0 111.202 99.932">
  <defs>
    <style>
      .cls-1 {
        fill: #010002;
      }
    </style>
  </defs>
  <g id="virtual-reality-2" transform="translate(-0.001)">
    <path id="Path_1668" data-name="Path 1668" class="cls-1" d="M111.189,97.52A64.539,64.539,0,0,0,101.9,72.24a18.945,18.945,0,0,0-3.475-3.963c-.058-.054-.118-.106-.181-.154-8.023-6.846-21.378-8.309-26.6-8.621V49.392a22.65,22.65,0,0,0,5.332-8.312l.634.052c.117.009.233.014.35.014a4.341,4.341,0,0,0,4.32-3.87h3.436a4.356,4.356,0,0,0,4.351-4.351V24.893a4.355,4.355,0,0,0-4.351-4.351H82.195a4.369,4.369,0,0,0-3.017-3.2c-.437-.126-.969-.275-1.585-.437a22.754,22.754,0,0,0-43.979,0c-.618.162-1.151.311-1.589.438a4.368,4.368,0,0,0-3.016,3.2H25.485a4.356,4.356,0,0,0-4.351,4.351v8.033a4.356,4.356,0,0,0,4.351,4.351h3.436a4.343,4.343,0,0,0,4.671,3.856l.635-.052a22.646,22.646,0,0,0,5.332,8.311V59.5c-6.136.367-23.51,2.321-30.257,12.739A64.555,64.555,0,0,0,.014,97.52a2.171,2.171,0,0,0,2.158,2.412H46.232a2.172,2.172,0,1,0,0-4.344H24.16V91.3a2.172,2.172,0,0,0-4.344,0v4.292H4.726A61.3,61.3,0,0,1,12.948,74.6a14.037,14.037,0,0,1,1.617-2.036c1.726,1.2,4.7,3.807,5.273,7.822a2.172,2.172,0,0,0,2.147,1.865,2.129,2.129,0,0,0,.31-.022,2.171,2.171,0,0,0,1.843-2.457A15.792,15.792,0,0,0,18.05,69.739c7.262-4.626,18.023-5.676,22.075-5.911a14.836,14.836,0,0,0,2.264,4.018c2.07,2.615,6.042,5.733,13.212,5.733s11.142-3.117,13.213-5.733a14.823,14.823,0,0,0,2.265-4.021,66.345,66.345,0,0,1,10.394,1.433,37.683,37.683,0,0,1,11.667,4.495,15.787,15.787,0,0,0-6.07,10.02,2.172,2.172,0,0,0,1.843,2.457,2.141,2.141,0,0,0,.311.022,2.173,2.173,0,0,0,2.147-1.865c.574-4.01,3.539-6.615,5.265-7.817A13.848,13.848,0,0,1,98.255,74.6a61.284,61.284,0,0,1,8.222,20.987H91.392V91.3a2.172,2.172,0,0,0-4.344,0v4.292H65.708a2.172,2.172,0,1,0,0,4.344H109.03a2.171,2.171,0,0,0,2.158-2.412ZM85.725,24.893l0,8.039H82.309V24.889Zm-47.16-9.125a18.422,18.422,0,0,1,34.077,0A89.425,89.425,0,0,0,60.71,14.223a82.7,82.7,0,0,0-10.233,0A89.448,89.448,0,0,0,38.565,15.768Zm12.219,2.789a79.541,79.541,0,0,1,9.635,0,83.266,83.266,0,0,1,17.547,2.961v3.858A74.117,74.117,0,0,0,55.6,22.058a74.136,74.136,0,0,0-22.365,3.316V21.517A83.231,83.231,0,0,1,50.783,18.556ZM25.478,32.926l.007-8.039h3.409V32.93ZM33.237,36.8V29.965c1.1-.392,2.869-.965,5.189-1.535a73.76,73.76,0,0,1,34.352,0c2.318.569,4.085,1.143,5.187,1.535V36.8l-2.344-.192c-1.771-.171-3.557-.234-5.325-.434a9.264,9.264,0,0,1-4.49-1.619c-1.445-1.043-2.439-2.441-4.028-3.32a12.856,12.856,0,0,0-12.352,0c-1.945,1.076-3.167,2.988-5.14,4a13.417,13.417,0,0,1-5.238,1.089Zm8.118,3.7A13.108,13.108,0,0,0,48.93,37.29c2-1.766,3.548-3.2,6.4-3.28,2.872-.085,4.721,1.176,6.719,3.039a12.98,12.98,0,0,0,7.8,3.45l2.6.212A18.412,18.412,0,0,1,50.98,51.091l-.1-.026A18.489,18.489,0,0,1,38.756,40.711ZM55.6,69.235c-4.283,0-7.543-1.327-9.692-3.943A10.309,10.309,0,0,1,43.9,61.362V52.791a22.786,22.786,0,0,0,23.4.005v8.565a10.326,10.326,0,0,1-2.006,3.93C63.145,67.908,59.883,69.235,55.6,69.235Zm0,0" transform="translate(0)"/>
    <path id="Path_1669" data-name="Path 1669" class="cls-1" d="M252.19,441.468a2.171,2.171,0,1,0-1.175,2.837A2.191,2.191,0,0,0,252.19,441.468Zm0,0" transform="translate(-194.15 -344.538)"/>
    <path id="Path_1670" data-name="Path 1670" class="cls-1" d="M229.9,197.84h8.151a2.172,2.172,0,0,0,0-4.344H229.9a2.172,2.172,0,1,0,0,4.344Zm0,0" transform="translate(-178.266 -151.47)"/>
  </g>
</svg>
