<svg xmlns="http://www.w3.org/2000/svg" width="107.608" height="107.435" viewBox="0 0 107.608 107.435">
  <defs>
    <style>
      .cls-1 {
        fill: #fff;
      }
    </style>
  </defs>
  <g id="virtual-reality" transform="translate(0 -0.413)">
    <g id="Group_22" data-name="Group 22" transform="translate(0 0.413)">
      <g id="Group_21" data-name="Group 21" transform="translate(0)">
        <path id="Path_1689" data-name="Path 1689" class="cls-1" d="M107.608,79.251V21.762a8.832,8.832,0,0,0-8.822-8.823H85.138a1.577,1.577,0,0,0,0,3.154H98.785a5.674,5.674,0,0,1,5.668,5.668V77.685H3.155V21.762a5.675,5.675,0,0,1,5.668-5.668H40.234a44.642,44.642,0,0,0-.648,9.745H10.264a2.631,2.631,0,0,0-2.629,2.629v41.6a2.631,2.631,0,0,0,2.629,2.629H97.345a2.631,2.631,0,0,0,2.629-2.629v-41.6a2.631,2.631,0,0,0-2.629-2.629H68.023a44.639,44.639,0,0,0-.648-9.745h6.3a1.577,1.577,0,0,0,0-3.154H66.572c-.012-.018-.021-.038-.033-.056s-.033-.04-.049-.061c-.03-.039-.058-.079-.092-.115L55.734,1.253a2.636,2.636,0,0,0-3.859,0L41.211,12.707c-.033.036-.061.075-.091.113-.017.021-.035.041-.051.063s-.021.038-.033.056H8.823A8.833,8.833,0,0,0,0,21.762V79.249s0,.009,0,.014v.324a8.833,8.833,0,0,0,8.824,8.822H45.07v8.767H33.405A2.631,2.631,0,0,0,30.777,99.8v5.415a2.631,2.631,0,0,0,2.629,2.629H74.2a2.631,2.631,0,0,0,2.629-2.629V99.8A2.631,2.631,0,0,0,74.2,97.175H62.539V88.409H98.784a8.833,8.833,0,0,0,8.824-8.822v-.324S107.608,79.255,107.608,79.251ZM71.4,69.54H36.209a4.422,4.422,0,0,1-3.035-6.989,1.577,1.577,0,1,0-2.55-1.858,7.567,7.567,0,0,0-.045,8.846H10.789V28.993H39.841c.016.131.029.261.046.393A21.014,21.014,0,0,0,35.558,40.92a2.626,2.626,0,0,0,3.6,2.642l4.5-1.8c.3.578.61,1.156.946,1.731a1.6,1.6,0,0,0,.091.134,12.528,12.528,0,0,0-1.49,7.542c.011.087.029.171.048.256a6.245,6.245,0,0,0-1.832,2.916,6.564,6.564,0,0,0-.823.042,1.577,1.577,0,1,0,.368,3.133,3.114,3.114,0,0,1,1.309.126,1.577,1.577,0,0,0,2.06-1.527l0-.05a3.078,3.078,0,0,1,1.405-2.581,2.62,2.62,0,0,0,1.178-.242l.272-.125a10.8,10.8,0,0,0,2.21,5.361,2.633,2.633,0,0,0,3.9.3l.5-.481.5.48a2.629,2.629,0,0,0,1.811.724c.066,0,.132,0,.2-.008a2.648,2.648,0,0,0,1.891-1.021,10.8,10.8,0,0,0,2.21-5.361l.272.125a2.618,2.618,0,0,0,1.178.242,3.078,3.078,0,0,1,1.4,2.567l0,.063a1.577,1.577,0,0,0,2.059,1.527,3.083,3.083,0,0,1,3.877,1.993,1.574,1.574,0,0,0,1.543,1.1l.1,0A4.423,4.423,0,0,1,71.4,69.54Zm-25.125-19.6a9.869,9.869,0,0,1,1.717-5.664H59.624a9.718,9.718,0,0,1,1.711,5.665c-.142-.026-.286-.045-.431-.062A2.62,2.62,0,0,0,57.332,52.2a7.589,7.589,0,0,1-1.284,3.883l-.431-.411a2.627,2.627,0,0,0-3.626,0l-.431.411A7.6,7.6,0,0,1,50.276,52.2,2.618,2.618,0,0,0,46.7,49.876C46.56,49.892,46.416,49.912,46.274,49.938ZM67.768,28.993H96.819V69.54H77.028a7.572,7.572,0,0,0-5.256-11.911,6.211,6.211,0,0,0-5.5-3.289h-.089a6.235,6.235,0,0,0-1.832-2.913,2.574,2.574,0,0,0,.048-.259,12.527,12.527,0,0,0-1.49-7.542A1.6,1.6,0,0,0,63,43.494c.342-.586.661-1.173.962-1.762l4.581,1.831a2.631,2.631,0,0,0,3.6-2.642,20.957,20.957,0,0,0-4.409-11.633C67.747,29.188,67.757,29.091,67.768,28.993ZM66.446,35.5l.007-.022c.027-.092.053-.187.08-.282q.165-.578.31-1.15c.023-.089.046-.178.069-.269a18.724,18.724,0,0,1,2.006,6.536l-3.589-1.434C65.641,38.053,66.038,36.913,66.446,35.5ZM53.8,3.809,61.62,12.2H45.989Zm-10.2,11.549H64c.772,3.59,2.555,15.089-3.28,25.762H46.886c-.442-.808-.834-1.62-1.193-2.434A44.41,44.41,0,0,1,43.2,30.078,41.869,41.869,0,0,1,43.606,15.358ZM42.345,38.89l-3.561,1.423A18.743,18.743,0,0,1,40.729,33.9,37.089,37.089,0,0,0,42.345,38.89ZM73.677,100.33v4.364H33.931V100.33H73.677ZM48.224,97.175V88.5h11.16v8.672ZM102.4,84.021c-1.347,1.183-3.05,1.233-4.748,1.233H24.623c-4.019,0-8.048.035-12.052.109-2.867.053-6.322.193-8.257-2.347l-.044-.057a4.822,4.822,0,0,1-.829-1.594c-.009-.029-.02-.057-.029-.085-.039-.124-.073-.251-.1-.379L3.3,80.84h97.238c1.256,0,2.528.029,3.778,0A6.181,6.181,0,0,1,102.4,84.021Z" transform="translate(0 -0.413)"/>
      </g>
    </g>
    <g id="Group_24" data-name="Group 24" transform="translate(46.719 16.653)">
      <g id="Group_23" data-name="Group 23">
        <path id="Path_1690" data-name="Path 1690" class="cls-1" d="M229.375,77.685a7.085,7.085,0,1,0,7.085,7.085A7.093,7.093,0,0,0,229.375,77.685Zm0,11.015a3.93,3.93,0,1,1,3.93-3.93A3.935,3.935,0,0,1,229.375,88.7Z" transform="translate(-222.29 -77.685)"/>
      </g>
    </g>
    <g id="Group_26" data-name="Group 26" transform="translate(10.059 19.351)">
      <g id="Group_25" data-name="Group 25">
        <path id="Path_1691" data-name="Path 1691" class="cls-1" d="M50.912,91.046a1.8,1.8,0,0,0-1.268-.524,1.72,1.72,0,0,0-.344.034,1.881,1.881,0,0,0-.339.1,1.913,1.913,0,0,0-.308.165,1.843,1.843,0,0,0-.27.223,1.769,1.769,0,0,0-.221.271,1.8,1.8,0,0,0-.164.307,1.842,1.842,0,0,0-.1.334,1.764,1.764,0,0,0-.036.351,1.792,1.792,0,0,0,.524,1.263,1.739,1.739,0,0,0,.27.22,1.607,1.607,0,0,0,.31.166,1.69,1.69,0,0,0,.333.1,1.709,1.709,0,0,0,.35.036,1.788,1.788,0,0,0,1.266-3.05Z" transform="translate(-47.859 -90.522)"/>
      </g>
    </g>
    <g id="Group_28" data-name="Group 28" transform="translate(16.087 19.351)">
      <g id="Group_27" data-name="Group 27">
        <path id="Path_1692" data-name="Path 1692" class="cls-1" d="M79.6,91.046a1.8,1.8,0,0,0-1.267-.524,1.728,1.728,0,0,0-.346.035,1.883,1.883,0,0,0-.336.1,1.822,1.822,0,0,0-.308.165,1.723,1.723,0,0,0-.269.222,1.785,1.785,0,0,0,0,2.525,1.612,1.612,0,0,0,.27.221,1.543,1.543,0,0,0,.31.167,1.692,1.692,0,0,0,.334.1,1.761,1.761,0,0,0,.351.036,1.786,1.786,0,0,0,1.264-3.05Z" transform="translate(-76.544 -90.522)"/>
      </g>
    </g>
    <g id="Group_30" data-name="Group 30" transform="translate(22.117 19.352)">
      <g id="Group_29" data-name="Group 29">
        <path id="Path_1693" data-name="Path 1693" class="cls-1" d="M108.282,91.049a1.887,1.887,0,0,0-.273-.225,1.842,1.842,0,0,0-.311-.165,1.772,1.772,0,0,0-.33-.1,1.787,1.787,0,1,0-.349,3.539,1.707,1.707,0,0,0,.346-.035,1.682,1.682,0,0,0,.332-.1,1.568,1.568,0,0,0,.312-.165,1.727,1.727,0,0,0,.272-.222,1.784,1.784,0,0,0,0-2.527Z" transform="translate(-105.231 -90.526)"/>
      </g>
    </g>
  </g>
</svg>
