<svg xmlns="http://www.w3.org/2000/svg" width="120.659" height="120.659" viewBox="0 0 120.659 120.659"><g transform="translate(0)"><path d="M117.006,104.939a3.657,3.657,0,0,0,3.653-3.653V97.249a3.657,3.657,0,0,0-3.653-3.653H101.138V88.78l9.6-3.6a3.719,3.719,0,0,0,0-6.965L99.992,74.188A1.768,1.768,0,0,0,97.6,75.843V93.6H73.809V89.323h.251a3.657,3.657,0,0,0,3.653-3.653V69.92a3.657,3.657,0,0,0-3.653-3.653H46.6a3.657,3.657,0,0,0-3.653,3.653V85.67A3.657,3.657,0,0,0,46.6,89.323h.251V93.6H40.44a1.767,1.767,0,0,0,0,3.535h76.567a.118.118,0,0,1,.118.118v4.038a.118.118,0,0,1-.118.118H3.653a.118.118,0,0,1-.118-.118V97.249a.118.118,0,0,1,.118-.118H33.307a1.767,1.767,0,1,0,0-3.535H23.055V75.843a1.767,1.767,0,0,0-2.388-1.655L9.925,78.216a3.719,3.719,0,0,0,0,6.965l9.6,3.6V93.6H3.653A3.657,3.657,0,0,0,0,97.249v4.038a3.657,3.657,0,0,0,3.653,3.653h.822l6.414,16.035a3.655,3.655,0,0,0-3.081,3.6v4.038a3.657,3.657,0,0,0,3.653,3.653h.251v15.986h-.251a3.657,3.657,0,0,0-3.653,3.653v8.06H3.653A3.657,3.657,0,0,0,0,163.619v4.038a3.657,3.657,0,0,0,3.653,3.653H15.986a1.767,1.767,0,1,0,0-3.535H3.653a.118.118,0,0,1-.118-.118v-4.038a.118.118,0,0,1,.118-.118H117.006a.118.118,0,0,1,.118.118v4.038a.118.118,0,0,1-.118.118H23.056a1.767,1.767,0,0,0,0,3.535h93.95a3.657,3.657,0,0,0,3.653-3.653v-4.038a3.657,3.657,0,0,0-3.653-3.653h-4.155v-8.06a3.657,3.657,0,0,0-3.653-3.653h-.251V132.268h.251a3.657,3.657,0,0,0,3.653-3.653v-4.038a3.655,3.655,0,0,0-3.081-3.6l6.414-16.035h.822ZM109.612,81.7a.158.158,0,0,1-.12.173L101.138,85V78.393l8.354,3.133A.159.159,0,0,1,109.612,81.7ZM46.48,85.67V69.92A.118.118,0,0,1,46.6,69.8H74.061a.118.118,0,0,1,.118.118V85.67a.118.118,0,0,1-.118.118H46.6A.118.118,0,0,1,46.48,85.67Zm15.986,3.653V93.6H58.193V89.323ZM50.384,93.6V89.323h4.273V93.6H50.384ZM66,93.6V89.323h4.273V93.6H66ZM11.166,81.872a.184.184,0,0,1,0-.345l8.354-3.133V85ZM96.76,104.939l-6.394,15.986H78.556l6.394-15.986Zm-15.617,0-6.394,15.986H45.91l-6.394-15.986Zm-45.435,0L42.1,120.925H30.293L23.9,104.939Zm-15.617,0,6.394,15.986H14.677L8.282,104.939Zm-4.844,27.329H27.329v27.7H23.055v-8.06a3.657,3.657,0,0,0-3.653-3.653H15.247Zm74.548,0v27.7H77.713V140.194a3.657,3.657,0,0,0-3.653-3.653H46.6a3.657,3.657,0,0,0-3.653,3.653v19.772H30.864v-27.7Zm-78.452,27.7v-8.06a.118.118,0,0,1,.118-.118H19.4a.118.118,0,0,1,.118.118v8.06ZM46.48,140.194a.118.118,0,0,1,.118-.118H58.562v19.89H46.48ZM62.1,159.966v-19.89H74.061a.118.118,0,0,1,.118.118v19.772Zm47.219-8.06v8.06h-8.177v-8.06a.118.118,0,0,1,.118-.118H109.2A.118.118,0,0,1,109.316,151.907Zm-3.9-3.653h-4.155a3.657,3.657,0,0,0-3.653,3.653v8.06H93.33v-27.7h12.082Zm3.9-19.639a.118.118,0,0,1-.118.118H11.461a.118.118,0,0,1-.118-.118v-4.038a.118.118,0,0,1,.118-.118H109.2a.118.118,0,0,1,.118.118Zm-3.333-7.69H94.173l6.394-15.986h11.809Z" transform="translate(0 -50.65)"/><path d="M348.783,41.134a1.767,1.767,0,0,0,2.414-.647l3.9-6.762a1.767,1.767,0,0,0-3.061-1.767l-3.9,6.762A1.768,1.768,0,0,0,348.783,41.134Z" transform="translate(-265.913 -23.75)"/><path d="M250.267,11.343a1.767,1.767,0,0,0,1.767-1.767V1.767a1.767,1.767,0,0,0-3.535,0V9.576A1.768,1.768,0,0,0,250.267,11.343Z" transform="translate(-189.938)"/><path d="M136.673,40.487a1.767,1.767,0,0,0,3.061-1.767l-3.9-6.762a1.767,1.767,0,1,0-3.061,1.767Z" transform="translate(-101.299 -23.751)"/><path d="M219.086,422.45h-1.952a1.767,1.767,0,0,0,0,3.535h1.952a1.767,1.767,0,1,0,0-3.535Z" transform="translate(-164.613 -322.895)"/><path d="M277.069,422.45h-1.952a1.767,1.767,0,1,0,0,3.535h1.952a1.767,1.767,0,1,0,0-3.535Z" transform="translate(-208.932 -322.895)"/><path d="M18.334,40.572h2.137v2.137a1.767,1.767,0,0,0,3.535,0V40.572h2.137a1.767,1.767,0,1,0,0-3.535H24.006V34.9a1.767,1.767,0,0,0-3.535,0v2.137H18.334a1.767,1.767,0,0,0,0,3.535Z" transform="translate(-12.663 -25.325)"/><path d="M449.067,40.572H451.2v2.137a1.767,1.767,0,0,0,3.535,0V40.572h2.137a1.767,1.767,0,0,0,0-3.535h-2.137V34.9a1.767,1.767,0,0,0-3.535,0v2.137h-2.137a1.767,1.767,0,0,0,0,3.535Z" transform="translate(-341.888 -25.325)"/></g></svg>